HIERARCHY
ROOT Hips
{
  OFFSET 196.326 95.9168 97.7182
  CHANNELS 6 Xposition Yposition Zposition Zrotation Xrotation Yrotation
  JOINT LeftUpLeg
  {
    OFFSET 8.64259 1.95398 -2.38835
    CHANNELS 3 Zrotation Xrotation Yrotation
    JOINT LeftLeg
    {
      OFFSET 43.7702 0 0
      CHANNELS 3 Zrotation Xrotation Yrotation
      JOINT LeftFoot
      {
        OFFSET 40.6238 0 0
        CHANNELS 3 Zrotation Xrotation Yrotation
        JOINT LeftToeBase
        {
          OFFSET 12.7242 0 0
          CHANNELS 3 Zrotation Xrotation Yrotation
          End Site
          {
            OFFSET 0 0 0
          }
        }
      }
    }
  }
  JOINT RightUpLeg
  {
    OFFSET -8.2249 1.95398 -2.59336
    CHANNELS 3 Zrotation Xrotation Yrotation
    JOINT RightLeg
    {
      OFFSET 43.5653 0 0
      CHANNELS 3 Zrotation Xrotation Yrotation
      JOINT RightFoot
      {
        OFFSET 40.6238 0 0
        CHANNELS 3 Zrotation Xrotation Yrotation
        JOINT RightToeBase
        {
          OFFSET 12.7242 0 0
          CHANNELS 3 Zrotation Xrotation Yrotation
          End Site
          {
            OFFSET 0 0 0
          }
        }
      }
    }
  }
  JOINT Spine
  {
    OFFSET 0.165834 0.87714 6.61349
    CHANNELS 3 Zrotation Xrotation Yrotation
    JOINT Spine1
    {
      OFFSET 7.38963 1.71661e-005 0
      CHANNELS 3 Zrotation Xrotation Yrotation
      JOINT Spine2
      {
        OFFSET 11.9445 1.14441e-005 0
        CHANNELS 3 Zrotation Xrotation Yrotation
        JOINT Spine3
        {
          OFFSET 14.7254 4.19617e-005 0
          CHANNELS 3 Zrotation Xrotation Yrotation
          JOINT Spine4
          {
            OFFSET 10.9679 0 0
            CHANNELS 3 Zrotation Xrotation Yrotation
            JOINT RightShoulder
            {
              OFFSET 2.46616 -1.6653 3.69651
              CHANNELS 3 Zrotation Xrotation Yrotation
              JOINT RightArm
              {
                OFFSET 13.0012 0 0
                CHANNELS 3 Zrotation Xrotation Yrotation
                JOINT RightForeArm
                {
                  OFFSET 28.7848 1.52588e-005 0
                  CHANNELS 3 Zrotation Xrotation Yrotation
                  JOINT RightHand
                  {
                    OFFSET 26.5688 1.52588e-005 0
                    CHANNELS 3 Zrotation Xrotation Yrotation
                    End Site
                    {
                      OFFSET 0 0 0
                    }
                  }
                }
              }
            }
            JOINT LeftShoulder
            {
              OFFSET 2.38034 -1.29275 -3.75231
              CHANNELS 3 Zrotation Xrotation Yrotation
              JOINT LeftArm
              {
                OFFSET 16.3182 6.10351e-005 0
                CHANNELS 3 Zrotation Xrotation Yrotation
                JOINT LeftForeArm
                {
                  OFFSET 27.0901 0 0
                  CHANNELS 3 Zrotation Xrotation Yrotation
                  JOINT LeftHand
                  {
                    OFFSET 24.5451 1.52588e-005 0
                    CHANNELS 3 Zrotation Xrotation Yrotation
                    End Site
                    {
                      OFFSET 0 0 0
                    }
                  }
                }
              }
            }
            JOINT Neck
            {
              OFFSET 5.0226 -0.0266342 0
              CHANNELS 3 Zrotation Xrotation Yrotation
              JOINT Head
              {
                OFFSET 6.69363 2.86102e-005 0
                CHANNELS 3 Zrotation Xrotation Yrotation
                End Site
                {
                  OFFSET 0 0 0
                }
              }
            }
          }
        }
      }
    }
  }
}
MOTION
Frames:	9
Frame Time:	0.0416667
16.5074 92.3673 1.96191 -83.7813 -21.8792 -89.021 -168.512 0.0387813 95.9976 -15.5051 -5.26145 0.270362 56.8209 3.73323 16.4233 58.0566 27.058 -12.5686 179.43 34.8387 88.3453 -20.3742 14.8427 1.19167 64.0246 -1.88656 -0.992349 39.5552 1.31433 20.0869 -0.939444 7.37071 -89.7363 12.139 -1.74266 0.718894 0.468948 -1.70936 0.794908 -22.0754 -1.87815 0.161745 -2.06276 -1.87813 0.161745 80.2884 -53.5275 -114.119 24.2446 -6.51037 18.5792 -11.7004 -17.4147 -39.8931 -4.61144 -0.489059 3.88386 -102.666 -39.9197 55.6751 -26.3606 0.828991 6.458 3.47431 -1.25276 -40.0512 15.4458 0.974986 2.4194 10.365 -3.99705 -1.94539 -5.04676 -3.47607 -0.914002 
10.8322 90.8174 3.2591 -84.5248 -19.2039 -89.3979 -167.296 -2.39182 97.8242 -20.0671 -3.68226 0.148701 56.8667 2.44573 13.0349 57.858 29.3631 -5.75521 179.011 38.7985 90.0791 -33.8135 9.90303 0.573885 62.8884 -2.06172 -1.11083 38.8216 1.08702 18.5368 -1.01263 7.55498 -89.9229 11.7694 -1.97767 0.36418 0.0998268 -1.95969 0.45089 -22.4474 -1.99564 -0.247269 -2.43472 -1.99563 -0.247264 80.2888 -53.434 -114.153 23.7933 -5.43535 18.3373 -11.555 -18.2006 -38.4658 -6.1876 -0.593946 4.07788 -103.875 -40.6269 54.1411 -24.9659 0.465969 5.71936 4.50847 0.0832658 -40.5801 14.3571 1.0973 3.70478 12.7255 -2.66749 -0.464593 -6.20842 -2.48272 0.0339379 
2.81353 90.4183 3.83565 -82.8999 -17.6609 -88.0029 -165.796 -2.68908 101.952 -22.4547 1.76954 0.216295 47.7214 -4.00603 7.01928 54.9055 31.2493 6.75728 179.456 39.5798 93.3394 -41.0777 10.5517 -0.016886 65.5999 -2.51917 -1.32601 31.9673 -0.464087 19.3725 -1.23298 7.32711 -90.112 12.2224 -2.50352 0.0565158 0.553857 -2.49863 0.166712 -21.9995 -2.40471 -0.698952 -1.98683 -2.40469 -0.698948 80.3588 -53.984 -113.851 24.1348 -5.59849 17.7824 -11.1221 -18.6357 -37.5783 -6.05075 -0.597435 4.34966 -103.771 -40.9474 54.462 -25.4374 1.22873 6.5395 3.01072 -1.3245 -37.658 14.935 0.944077 2.42591 13.3996 -1.12705 -0.437513 -7.86073 -0.996707 1.10875 
-4.90891 90.4139 3.69664 -83.3451 -15.1001 -88.5919 -167.321 1.53921 102.905 -34.2056 5.51504 0.995361 40.0992 -9.28824 5.29435 39.2536 11.8962 3.8745 179.933 36.3426 96.0222 -45.1939 11.6492 -0.800867 71.4939 -4.00083 -2.02701 29.0557 -1.17175 19.3447 -1.25622 7.24348 -90.0043 12.3934 -2.49833 0.276322 0.724783 -2.48374 0.386065 -21.8294 -2.46581 -0.487785 -1.81675 -2.4658 -0.487787 80.5908 -53.0462 -113.865 27.21 -5.8839 17.4077 -11.4737 -18.5402 -38.4142 -3.95445 -0.460611 4.25369 -103.143 -40.4528 55.1926 -27.0121 1.54849 7.45362 2.54662 -1.50337 -32.8128 13.426 0.70996 1.38043 12.8271 -0.0221715 -0.748953 -8.35287 0.148116 1.24751 
-11.6661 91.3476 3.9511 -84.2645 -10.027 -88.7196 -167.721 10.0453 100.844 -48.2683 13.6511 -0.447281 44.5296 -6.27666 8.44718 43.6318 16.3965 -0.27163 -178.586 29.8085 98.2022 -42.9591 9.86704 -1.81116 75.0444 -4.84385 -2.32411 29.7871 -1.11391 21.3508 -0.810186 7.3415 -89.9711 12.1937 -1.59659 0.235377 0.523687 -1.58471 0.305434 -22.0193 -1.59348 -0.255459 -2.00661 -1.59351 -0.255474 80.359 -52.0176 -114.582 28.58 -7.69522 15.6816 -12.803 -19.4725 -41.0013 -3.12984 -0.428577 4.9968 -103.54 -41.3753 55.0313 -27.3208 1.98844 7.17072 3.07691 0.408221 -30.2509 14.0769 0.833727 2.01789 12.1935 0.487958 -0.250856 -7.95029 0.52463 1.16929 
-18.4531 92.9925 4.39071 -83.8643 -5.12705 -89.9306 -167.743 18.2366 95.7171 -50.6819 17.8825 -2.41792 48.2169 -3.47211 10.4837 53.9709 27.1491 -1.16639 -178.38 22.8127 97.29 -37.882 4.97823 -2.24991 75.6065 -4.58785 -2.1794 32 -0.61207 23.0134 -0.34115 7.31433 -89.8256 12.2459 -0.595305 0.415047 0.575013 -0.576465 0.44084 -21.9611 -0.692516 0.216935 -1.94846 -0.692534 0.216927 80.8666 -50.8504 -114.284 28.9928 -9.0602 13.4675 -14.297 -19.5725 -44.0781 -4.03661 -0.48932 4.65139 -103.436 -42.0064 55.498 -29.1982 2.3299 7.42939 3.27894 1.17698 -29.9171 14.1312 0.924359 2.61761 11.0629 0.741245 0.481233 -7.39022 0.604438 1.06377 
-25.1366 94.5144 4.84834 -83.9841 -1.6218 -90.9201 -169.472 24.5853 92.0546 -44.117 16.335 -2.67888 52.719 0.36313 13.0418 60.6394 31.8398 -6.16651 -178.729 15.0287 96.3565 -31.2775 1.62681 -2.07405 73.704 -4.15216 -2.02477 35.3359 0.264305 21.5373 0.0267004 7.3298 -89.8076 12.214 0.144208 0.367821 0.543004 0.160242 0.361113 -21.9917 0.0270106 0.394157 -1.97904 0.0269933 0.394149 81.2905 -50.005 -113.978 28.6675 -8.98502 12.6222 -15.7412 -17.6195 -48.2591 -5.6663 -0.595814 4.7756 -103.103 -42.2219 56.1124 -31.8389 3.11969 8.31814 3.52251 2.13083 -30.7287 13.0697 0.768723 1.9687 9.84845 0.778164 1.05511 -6.61542 0.524819 0.858662 
-31.8464 94.9682 5.42963 -83.3749 1.47382 -91.4575 -171.472 29.0131 89.6754 -30.4574 9.97368 -2.22835 56.9334 2.41483 10.5646 55.475 30.2455 2.78316 -178.838 8.96441 95.4927 -26.4741 -1.33692 -2.44077 72.5819 -4.17602 -2.07864 37.9092 0.899125 19.0714 0.304572 7.30809 -89.7639 12.2563 0.717225 0.390882 0.585504 0.733728 0.358933 -21.9503 0.566601 0.588377 -1.93763 0.566589 0.588362 81.4507 -48.7806 -114.207 27.8311 -9.37579 11.1838 -15.8235 -15.5707 -51.5404 -7.44798 -0.690452 4.46511 -102.862 -42.7288 56.7195 -33.7574 3.38946 9.61791 3.5216 1.89972 -31.5899 10.9774 0.534602 0.953387 9.88909 1.45647 2.08174 -6.38265 0.957138 0.351809 
-39.0905 94.3829 6.02304 -82.625 4.79829 -91.7327 -173.379 29.8469 89.5088 -10.2009 12.5889 -2.66674 56.4381 3.23758 14.6752 58.7451 34.1326 3.49102 -179.458 3.56649 94.5862 -23.5987 -1.79132 -2.67676 72.8898 -4.44548 -2.19849 40.1717 1.4802 20.523 0.508338 7.26047 -89.6663 12.3504 1.16868 0.533766 0.679881 1.19101 0.481802 -21.8574 0.954232 0.860332 -1.84478 0.954221 0.860334 81.3794 -48.5273 -114.412 26.1622 -9.64649 9.56695 -17.9671 -14.5783 -55.2188 -7.13397 -0.693191 4.89144 -103.064 -42.9066 56.4958 -34.9056 3.72242 11.0706 3.97095 3.04924 -31.9367 9.55841 0.382362 0.153255 11.072 2.25753 2.59369 -7.56908 1.59176 0.335821 
